<svg width="202" height="200" viewBox="0 0 202 200" fill="none" xmlns="http://www.w3.org/2000/svg">
<g opacity="0.6">
<path opacity="0.6" d="M67.5224 35.7107L62.3937 24.533L69.5761 21.2886L70.3391 22.9663L65.0871 25.344L66.6134 28.6774L71.5624 26.4552L72.3142 28.1107L67.3652 30.333L69.4526 34.8663L67.5224 35.7107Z" fill="#D44DBE"/>
<path opacity="0.6" d="M81.1257 30.7C77.9049 31.6 74.8974 29.6667 73.8874 26.1444C72.8774 22.6223 74.4149 19.4 77.6469 18.5C80.8789 17.6 83.8976 19.5111 84.9076 23.0556C85.9176 26.6 84.3577 29.8 81.1257 30.7ZM78.1519 20.2889C76.0532 20.8777 75.2116 23.0667 75.9074 25.5667C76.6032 28.0667 78.4997 29.5 80.5982 28.9C82.6969 28.3 83.5609 26.1111 82.8427 23.6111C82.1246 21.1111 80.2504 19.7 78.1519 20.2889Z" fill="#D44DBE"/>
<path opacity="0.6" d="M86.647 16.5998L88.7343 16.3442L90.0361 26.6665L95.9502 25.9332L96.1858 27.7776L88.1845 28.7553L86.647 16.5998Z" fill="#D44DBE"/>
<path opacity="0.6" d="M98.0379 15.4443H100.136L99.9681 25.8554L105.916 25.9554V27.811L97.8359 27.7777L98.0379 15.4443Z" fill="#D44DBE"/>
<path opacity="0.6" d="M111.986 28.8C108.619 28.3 106.734 25.3 107.295 21.6777C107.856 18.0555 110.583 15.7667 113.905 16.2555C117.226 16.7444 119.168 19.7444 118.618 23.3777C118.068 27.0111 115.296 29.2888 111.986 28.8ZM113.624 18.1C111.469 17.7777 109.786 19.4221 109.393 21.9888C109.001 24.5555 110.112 26.6667 112.221 26.9555C114.331 27.2444 116.082 25.6333 116.475 23.0667C116.867 20.5 115.779 18.4221 113.624 18.1Z" fill="#D44DBE"/>
<path opacity="0.6" d="M130.067 20.5221L129.259 29.8221L134.388 22.0444L136.296 22.711L129.181 33.2554L127.352 32.611L128.081 23.5666L122.896 31.0666L121.09 30.4444L122.212 17.811L124.153 18.4888L123.211 27.7777L128.463 20L130.067 20.5221Z" fill="#D44DBE"/>
<path opacity="0.6" d="M144.474 42.2223C141.781 40.2445 141.512 36.6667 143.722 33.7556C145.933 30.8445 149.445 30.0779 152.138 32.0667C154.832 34.0556 155.124 37.6223 152.902 40.5445C150.68 43.4667 147.156 44.2333 144.474 42.2223ZM151.006 33.5556C149.266 32.2667 146.987 32.9333 145.394 35.0223C143.801 37.1112 143.823 39.4667 145.573 40.7333C147.324 42 149.603 41.3779 151.185 39.2889C152.767 37.2 152.756 34.8779 151.006 33.5779V33.5556Z" fill="#D44DBE"/>
<path opacity="0.6" d="M153.745 43.0331L159.121 37.9219L160.568 39.4219L155.361 44.3775C153.633 46.0108 153.532 47.4997 154.822 48.8219C156.114 50.1441 157.606 50.1108 159.312 48.4775L164.53 43.5219L165.978 45.0219L160.591 50.1441C158.144 52.4775 155.496 52.2331 153.442 50.1441C151.388 48.0552 151.276 45.3775 153.745 43.0331Z" fill="#D44DBE"/>
<path opacity="0.6" d="M163.632 53.9552L159.513 56.8218L158.313 55.1218L168.413 48.0552L171.161 51.933C172.632 54.0108 172.531 56.0885 170.545 57.4885C170.198 57.7636 169.8 57.968 169.373 58.0901C168.947 58.2122 168.5 58.2496 168.059 58.2C167.618 58.1504 167.19 58.0149 166.802 57.8013C166.414 57.5877 166.072 57.3001 165.798 56.9552L163.687 62.7774L162.319 60.8441L164.451 55.1885L163.632 53.9552ZM165.068 52.9552L166.595 55.0997C166.732 55.3242 166.915 55.5182 167.132 55.6693C167.349 55.8202 167.595 55.9252 167.855 55.9772C168.115 56.0292 168.383 56.0273 168.643 55.9716C168.902 55.9158 169.147 55.8074 169.361 55.6533C169.576 55.4992 169.757 55.3026 169.89 55.0761C170.025 54.8496 170.11 54.598 170.141 54.337C170.172 54.0762 170.149 53.8118 170.071 53.5606C169.994 53.3093 169.864 53.0768 169.692 52.8774L168.177 50.7441L165.068 52.9552Z" fill="#D44DBE"/>
<path opacity="0.6" d="M171.913 71.2888C171.668 71.3708 171.443 71.5021 171.252 71.6744C171.06 71.8468 170.907 72.0564 170.802 72.2901C170.695 72.524 170.64 72.7768 170.639 73.0328C170.636 73.2888 170.689 73.5424 170.79 73.7777C171.295 75.0888 172.283 75.4444 173.933 74.8888L181.541 72.0777L182.27 74.0221L174.661 76.8332C171.901 77.8554 169.904 76.8332 169.051 74.5221C168.822 74.0465 168.694 73.5293 168.677 73.0028C168.661 72.4762 168.752 71.9518 168.95 71.4625C169.147 70.9732 169.444 70.5296 169.823 70.1593C170.201 69.789 170.652 69.5002 171.149 69.311L171.913 71.2888Z" fill="#D44DBE"/>
<path opacity="0.6" d="M172.181 85.0886C171.497 81.8442 173.651 78.9998 177.264 78.2442C180.879 77.4886 183.998 79.2332 184.705 82.4776C185.412 85.722 183.269 88.5776 179.633 89.3442C175.997 90.1109 172.877 88.3332 172.181 85.0886ZM182.876 82.8665C182.428 80.7553 180.273 79.7776 177.702 80.3109C175.133 80.8442 173.573 82.5998 174.022 84.7553C174.47 86.9109 176.625 87.8665 179.196 87.3332C181.765 86.7998 183.324 84.9776 182.92 82.8553L182.876 82.8665Z" fill="#D44DBE"/>
<path opacity="0.6" d="M178.611 91.7334L186.051 91.4224L186.152 93.5001L178.914 93.8112C176.536 93.9112 175.469 94.9224 175.547 96.789C175.627 98.6557 176.782 99.589 179.162 99.489L186.388 99.1778L186.478 101.256L179.004 101.578C175.638 101.711 173.797 99.8112 173.674 96.8668C173.55 93.9224 175.2 91.8778 178.611 91.7334Z" fill="#D44DBE"/>
<path opacity="0.6" d="M178.748 106.4L173.743 105.855L173.968 103.789L186.311 105.122L185.796 109.833C185.515 112.355 184.045 113.855 181.644 113.589C181.199 113.569 180.764 113.462 180.363 113.275C179.962 113.088 179.602 112.825 179.303 112.499C179.006 112.174 178.775 111.794 178.626 111.38C178.476 110.966 178.41 110.527 178.433 110.089L172.958 113.077L173.215 110.733L178.591 107.866L178.748 106.4ZM180.487 106.588L180.207 109.188C180.049 110.566 180.712 111.411 181.857 111.544C183.001 111.677 183.832 110.966 183.978 109.6L184.27 106.989L180.487 106.588Z" fill="#D44DBE"/>
<path opacity="0.6" d="M170.061 123.844L170.488 122.3L180.868 118.6L172.161 116.233L172.687 114.311L184.651 117.544L184.134 119.433L174.248 122.9L182.551 125.122L182.025 127.055L170.061 123.844Z" fill="#D44DBE"/>
<path opacity="0.6" d="M177.244 138.233L175.55 137.489L178.008 132.033L175.068 130.711L172.823 135.656L171.14 134.923L173.385 129.967L170.141 128.533L167.683 134L165.966 133.244L169.254 125.922L180.577 130.911L177.244 138.233Z" fill="#D44DBE"/>
<path opacity="0.6" d="M171.397 147.9L170.208 149.767L166.325 142.044L162.139 139.423L163.262 137.677L167.447 140.3L176.144 140.5L174.921 142.411L168.468 142.223L171.397 147.9Z" fill="#D44DBE"/>
<path opacity="0.6" d="M132.601 165.21L137.415 176.522L130.11 179.556L129.392 177.866L134.756 175.644L133.331 172.31L128.325 174.4L127.607 172.722L132.624 170.633L130.671 166.044L132.601 165.21Z" fill="#D44DBE"/>
<path opacity="0.6" d="M118.867 169.833C122.11 169.023 125.073 171.044 125.97 174.6C126.868 178.156 125.252 181.323 121.998 182.133C118.743 182.944 115.781 180.944 114.872 177.377C113.963 173.811 115.59 170.644 118.867 169.833ZM121.538 180.333C123.659 179.8 124.568 177.633 123.917 175.111C123.266 172.589 121.437 171.111 119.327 171.644C117.217 172.177 116.286 174.344 116.925 176.867C117.565 179.389 119.428 180.856 121.538 180.333Z" fill="#D44DBE"/>
<path opacity="0.6" d="M112.951 183.756L110.864 183.956L109.854 173.589L103.928 174.156L103.749 172.3L111.761 171.533L112.951 183.756Z" fill="#D44DBE"/>
<path opacity="0.6" d="M101.572 184.577L99.4733 184.5L99.8548 174.089L93.8958 173.877L93.9631 172.011L102.021 172.311L101.572 184.577Z" fill="#D44DBE"/>
<path opacity="0.6" d="M87.9605 170.867C91.2599 171.467 93.1115 174.511 92.4494 178.123C91.7872 181.733 88.9817 183.944 85.716 183.344C82.4504 182.744 80.5539 179.723 81.2272 176.1C81.9005 172.477 84.6612 170.277 87.9605 170.867ZM86.019 181.523C88.1625 181.9 89.8907 180.3 90.362 177.744C90.8334 175.189 89.7785 173.089 87.635 172.7C85.4915 172.311 83.7297 173.911 83.2695 176.477C82.8095 179.044 83.8755 181.111 86.019 181.523Z" fill="#D44DBE"/>
<path opacity="0.6" d="M69.6679 178.633L70.7901 169.356L65.4259 177.011L63.5406 176.289L70.9584 165.956L72.7764 166.633L71.7889 175.667L77.1868 168.311L78.9824 168.989L77.4337 181.589L75.5147 180.867L76.6369 171.623L71.1604 179.233L69.6679 178.633Z" fill="#D44DBE"/>
<path opacity="0.6" d="M55.8851 156.5C58.5111 158.566 58.6794 162.11 56.3901 164.989C54.1007 167.866 50.5657 168.5 47.9285 166.444C45.2914 164.389 45.1005 160.833 47.4124 157.944C49.7241 155.056 53.2479 154.444 55.8851 156.5ZM49.1517 164.989C50.8687 166.322 53.1581 165.722 54.7629 163.677C56.3677 161.633 56.4574 159.3 54.7629 157.956C53.0684 156.61 50.7454 157.21 49.1517 159.256C47.5582 161.3 47.3899 163.644 49.0957 164.989H49.1517Z" fill="#D44DBE"/>
<path opacity="0.6" d="M46.6403 155.456L41.119 160.422L39.705 158.889L45.0691 154.077C46.831 152.489 46.977 151.01 45.7313 149.633C44.4856 148.256 42.9706 148.266 41.2423 149.856L35.9118 154.666L34.4978 153.122L40.0303 148.156C42.5441 145.933 45.1813 146.2 47.179 148.377C49.1765 150.556 49.1653 153.189 46.6403 155.456Z" fill="#D44DBE"/>
<path opacity="0.6" d="M37.0339 144.256L41.2309 141.511L42.3532 143.244L32.0736 150L29.4364 146.044C28.0224 143.923 28.1907 141.856 30.2107 140.489C30.5648 140.224 30.9681 140.032 31.3976 139.923C31.8269 139.813 32.274 139.788 32.713 139.851C33.152 139.912 33.5743 140.06 33.9557 140.284C34.3371 140.508 34.67 140.804 34.9352 141.156L37.1797 135.4L38.4927 137.367L36.1922 142.923L37.0339 144.256ZM35.5637 145.211L34.1049 142.989C33.9876 142.743 33.8179 142.523 33.6074 142.347C33.3971 142.171 33.1508 142.041 32.8854 141.968C32.6201 141.895 32.3417 141.879 32.0695 141.921C31.7972 141.964 31.5375 142.064 31.3079 142.215C31.0781 142.365 30.8839 142.563 30.7385 142.795C30.5931 143.027 30.4997 143.287 30.4649 143.557C30.43 143.828 30.4544 144.103 30.5364 144.363C30.6184 144.624 30.7561 144.864 30.9402 145.067L32.3991 147.289L35.5637 145.211Z" fill="#D44DBE"/>
<path opacity="0.6" d="M29.2796 126.667C29.5208 126.583 29.7423 126.452 29.9306 126.281C30.119 126.11 30.2702 125.902 30.3751 125.672C30.4802 125.441 30.5366 125.192 30.5412 124.939C30.5457 124.686 30.4983 124.434 30.4019 124.2C29.9529 122.878 28.9654 122.489 27.2933 123.089L19.6398 125.667L18.9664 123.689L26.6536 121.111C29.4479 120.178 31.4231 121.2 32.2648 123.589C32.4808 124.071 32.5939 124.592 32.5967 125.119C32.5997 125.646 32.4924 126.169 32.2815 126.653C32.0707 127.137 31.761 127.573 31.3718 127.933C30.9827 128.293 30.5226 128.569 30.0203 128.744L29.2796 126.667Z" fill="#D44DBE"/>
<path opacity="0.6" d="M29.4132 112.867C30.0079 116.133 27.7635 118.911 24.1275 119.533C20.4915 120.156 17.3942 118.345 16.8106 115.089C16.2271 111.833 18.4379 109.033 22.0962 108.422C25.7547 107.811 28.8184 109.6 29.4132 112.867ZM18.6622 114.789C19.0439 116.911 21.1649 117.956 23.7572 117.5C26.3495 117.045 27.9542 115.278 27.5727 113.2C27.1912 111.122 25.0589 110 22.4442 110.467C19.8294 110.933 18.2807 112.656 18.6622 114.789Z" fill="#D44DBE"/>
<path opacity="0.6" d="M23.1958 106.111L15.7106 106.222V104.144L22.9376 104.033C25.328 104.033 26.4166 102.978 26.3829 101.133C26.3493 99.2887 25.2606 98.3221 22.8479 98.3554L15.6208 98.4666V96.3887L23.0948 96.2666C26.4615 96.2666 28.2458 98.1666 28.3019 101.111C28.358 104.055 26.6073 106.055 23.1958 106.111Z" fill="#D44DBE"/>
<path opacity="0.6" d="M23.4779 91.3888L28.4606 92.0777L28.1687 94.1332L15.8917 92.4444L16.5426 87.7777C16.9017 85.2665 18.4054 83.811 20.8071 84.1444C21.2537 84.1764 21.6895 84.2964 22.0887 84.4973C22.488 84.6982 22.8428 84.976 23.1322 85.3144C23.4217 85.6528 23.6402 86.0449 23.7747 86.4678C23.9091 86.8908 23.957 87.3361 23.9156 87.7777L29.5267 84.9444L29.1787 87.2221L23.6799 89.9221L23.4779 91.3888ZM21.7384 91.111L22.0976 88.511C22.1784 88.2504 22.2005 87.9754 22.1623 87.7054C22.1244 87.4354 22.027 87.177 21.8773 86.9482C21.7275 86.7196 21.529 86.5261 21.2956 86.3814C21.0622 86.2368 20.7996 86.1445 20.5264 86.111C19.4042 85.9554 18.5289 86.6332 18.3381 87.9998L17.9566 90.6332L21.7384 91.111Z" fill="#D44DBE"/>
<path opacity="0.6" d="M32.6572 74.2112L32.1859 75.7445L21.6931 79.1556L30.3006 81.7556L29.7171 83.6779L17.8776 80.1001L18.4611 78.2223L28.4264 75.0335L20.2006 72.5556L20.7954 70.6445L32.6572 74.2112Z" fill="#D44DBE"/>
<path opacity="0.6" d="M25.8887 59.6221L27.5609 60.4221L24.9461 65.8109L27.8975 67.2109L30.2991 62.3331L31.96 63.1109L29.5921 67.9998L32.7904 69.5221L35.4052 64.1331L37.0997 64.9442L33.5535 72.2221L22.4435 66.8554L25.8887 59.6221Z" fill="#D44DBE"/>
<path opacity="0.6" d="M32.0157 50.1332L33.2613 48.311L36.9197 56.0888L41.027 58.8888L39.9048 60.5998L35.8087 57.8554L27.1227 57.4221L28.3572 55.5554L34.7875 55.8888L32.0157 50.1332Z" fill="#D44DBE"/>
<path opacity="0.57" d="M53.3176 43.0554C50.8488 45.5554 44.8898 45.5554 44.8898 45.5554C44.8898 45.5554 44.8898 39.6554 47.3249 37.2C49.7601 34.7444 52.1954 34.9777 53.8563 36.6554C55.5173 38.3333 55.7978 40.6 53.3176 43.0554Z" fill="#D44DBE"/>
<path opacity="0.6" d="M55.4492 36.6665C53.2557 37.673 51.2753 39.0833 49.6136 40.8221" stroke="#D44DBE" stroke-width="0.416667"/>
<path opacity="0.6" d="M53.2484 42.9888C51.7947 44.17 50.0235 44.9039 48.1536 45.0999C47.411 45.2307 46.6617 45.3198 45.9091 45.3666H45.2021H45.0449V45.2111C45.0449 45.0444 45.0449 44.8111 45.0449 44.5111C45.0787 43.7443 45.1575 42.98 45.2806 42.2222C45.4835 40.3739 46.2199 38.6226 47.4016 37.1778C48.2942 36.1611 49.5483 35.5243 50.9029 35.3999C51.4444 35.4018 51.9796 35.5152 52.4743 35.7334C52.969 35.9515 53.4123 36.2694 53.7759 36.6666C54.169 37.0316 54.4802 37.4746 54.6891 37.9666C54.8978 38.4586 54.9996 38.9886 54.9879 39.5222C54.8768 40.8554 54.2544 42.0959 53.2484 42.9888Z" stroke="#D44DBE" stroke-width="0.416667"/>
<path opacity="0.6" d="M51.745 41.4331C51.745 41.4331 52.4632 39.4887 51.745 38.7775C51.0267 38.0664 49.5005 38.7775 49.5005 38.7775" stroke="#D44DBE" stroke-width="0.416667"/>
<path opacity="0.57" d="M149.984 155.91C152.172 153.2 158.097 152.577 158.097 152.577C158.097 152.577 158.781 158.433 156.593 161.144C154.405 163.856 152.004 163.844 150.174 162.4C148.345 160.956 147.795 158.622 149.984 155.91Z" fill="#D44DBE"/>
<path opacity="0.6" d="M148.583 162.544C150.652 161.308 152.464 159.694 153.925 157.789" stroke="#D44DBE" stroke-width="0.416667"/>
<path opacity="0.6" d="M150.063 155.977C151.373 154.657 153.042 153.739 154.867 153.333C155.605 153.124 156.353 152.953 157.11 152.823L157.806 152.723H157.964C157.959 152.773 157.959 152.825 157.964 152.877C157.964 153.033 157.964 153.277 157.964 153.567C158.003 154.333 158.003 155.1 157.964 155.867C157.973 157.731 157.435 159.556 156.415 161.123C155.642 162.228 154.468 162.996 153.138 163.267C152.058 163.349 150.987 163.023 150.14 162.356C149.293 161.688 148.731 160.727 148.571 159.667C148.562 158.984 148.688 158.308 148.944 157.675C149.2 157.041 149.581 156.464 150.063 155.977Z" stroke="#D44DBE" stroke-width="0.416667"/>
<path opacity="0.6" d="M151.725 157.367C151.725 157.367 151.243 159.367 152.028 159.989C152.814 160.611 154.273 159.744 154.273 159.744" stroke="#D44DBE" stroke-width="0.416667"/>
</g>
</svg>
